<svg width="223" height="243" viewBox="0 0 223 243" fill="none" xmlns="http://www.w3.org/2000/svg">
<path d="M139.477 126.877C141.869 128.928 143.773 131.32 145.189 134.055C146.605 136.789 147.313 140.427 147.313 144.968C147.313 150.095 146.288 154.88 144.237 159.323C142.235 163.767 139.135 167.575 134.936 170.749C130.834 173.825 126 176.193 120.434 177.854C114.916 179.465 108.202 180.271 100.292 180.271C91.2588 180.271 83.4951 179.562 77.001 178.146C70.5557 176.73 65.3066 175.144 61.2539 173.386V149.436H64.1104C68.3096 151.975 73.3145 154.172 79.125 156.027C84.9844 157.883 90.3311 158.811 95.165 158.811C97.9971 158.811 101.073 158.591 104.394 158.151C107.714 157.663 110.521 156.638 112.816 155.075C114.623 153.854 116.063 152.39 117.138 150.681C118.212 148.923 118.749 146.408 118.749 143.137C118.749 139.963 118.017 137.521 116.552 135.812C115.087 134.055 113.158 132.81 110.766 132.077C108.373 131.296 105.492 130.881 102.123 130.832C98.7539 130.734 95.6289 130.686 92.748 130.686H86.7422V111.203H92.9678C96.7764 111.203 100.146 111.081 103.075 110.837C106.005 110.593 108.495 110.031 110.546 109.152C112.694 108.225 114.306 107.004 115.38 105.49C116.454 103.928 116.991 101.657 116.991 98.6787C116.991 96.4814 116.43 94.7236 115.307 93.4053C114.184 92.0381 112.768 90.9639 111.059 90.1826C109.154 89.3037 106.908 88.7178 104.32 88.4248C101.732 88.1318 99.5107 87.9854 97.6553 87.9854C93.0654 87.9854 88.085 88.791 82.7139 90.4023C77.3428 91.9648 72.1426 94.2354 67.1133 97.2139H64.4033V73.5566C68.4072 71.9453 73.8516 70.4072 80.7363 68.9424C87.6211 67.4287 94.6035 66.6719 101.684 66.6719C108.568 66.6719 114.599 67.2822 119.774 68.5029C124.95 69.6748 129.223 71.2617 132.592 73.2637C136.596 75.6562 139.574 78.5615 141.527 81.9795C143.48 85.3975 144.457 89.4014 144.457 93.9912C144.457 100.046 142.577 105.466 138.817 110.251C135.058 114.987 130.102 118.015 123.949 119.333V120.358C126.439 120.7 129.076 121.384 131.859 122.409C134.643 123.435 137.182 124.924 139.477 126.877Z" fill="url(#paint0_linear_51_59)"/>
<g opacity="0.5" filter="url(#filter0_d_51_59)">
<path d="M51.7367 47.4029L192.14 129.491L52.3805 212.671L51.7367 47.4029Z" stroke="url(#paint1_linear_51_59)" stroke-width="5" shape-rendering="crispEdges"/>
</g>
<defs>
<filter id="filter0_d_51_59" x="24.2197" y="18.0354" width="197.841" height="224.023" filterUnits="userSpaceOnUse" color-interpolation-filters="sRGB">
<feFlood flood-opacity="0" result="BackgroundImageFix"/>
<feColorMatrix in="SourceAlpha" type="matrix" values="0 0 0 0 0 0 0 0 0 0 0 0 0 0 0 0 0 0 127 0" result="hardAlpha"/>
<feOffset/>
<feGaussianBlur stdDeviation="12.5"/>
<feComposite in2="hardAlpha" operator="out"/>
<feColorMatrix type="matrix" values="0 0 0 0 0.6 0 0 0 0 0.886275 0 0 0 0 0.54902 0 0 0 1 0"/>
<feBlend mode="normal" in2="BackgroundImageFix" result="effect1_dropShadow_51_59"/>
<feBlend mode="normal" in="SourceGraphic" in2="effect1_dropShadow_51_59" result="shape"/>
</filter>
<linearGradient id="paint0_linear_51_59" x1="128.938" y1="301.692" x2="83.1233" y2="301.255" gradientUnits="userSpaceOnUse">
<stop stop-color="#DFE16C"/>
<stop offset="1" stop-color="#99E28C"/>
</linearGradient>
<linearGradient id="paint1_linear_51_59" x1="197.06" y1="129.472" x2="0.391347" y2="130.238" gradientUnits="userSpaceOnUse">
<stop stop-color="#99E28C"/>
<stop offset="1" stop-color="#DFE16C"/>
</linearGradient>
</defs>
</svg>
